<svg width="98" height="81" viewBox="0 0 98 81" fill="none" xmlns="http://www.w3.org/2000/svg">
<path d="M32.7906 80.1666C30.8073 80.1666 29.0719 79.4228 27.5844 77.9353C26.0969 76.4478 25.3531 74.7124 25.3531 72.7291V60.3333H40.724V44.5905C37.5837 44.8385 34.4434 44.4046 31.3031 43.289C28.1628 42.1734 25.3531 40.4173 22.874 38.0208V30.8312H16.676L0.4375 14.5926C3.4125 11.7829 6.96597 9.48967 11.0979 7.71294C15.2299 5.9362 19.4444 5.04783 23.7417 5.04783C26.2208 5.04783 29.0512 5.44037 32.2328 6.22544C35.4144 7.01051 38.2448 8.27075 40.724 10.0062V0.833252H97.125V67.151C97.125 70.7871 95.8648 73.8654 93.3443 76.3859C90.8238 78.9063 87.7455 80.1666 84.1094 80.1666H32.7906ZM48.1615 60.3333H78.5312V67.151C78.5312 68.8037 79.0477 70.1466 80.0807 71.1796C81.1137 72.2126 82.4566 72.7291 84.1094 72.7291C85.7622 72.7291 87.105 72.2126 88.138 71.1796C89.171 70.1466 89.6875 68.8037 89.6875 67.151V8.27075H48.1615V15.3364L78.0354 45.2103V50.5405H72.7052L57.0865 34.9218L54.9792 37.401C53.9049 38.6405 52.8306 39.5909 51.7563 40.252C50.6819 40.9131 49.4837 41.5329 48.1615 42.1114V60.3333ZM20.0229 23.3937H30.3115V34.426C31.7163 35.335 33.1005 36.0168 34.4641 36.4713C35.8276 36.9258 37.2118 37.153 38.6167 37.153C40.6826 37.153 42.7899 36.5952 44.9385 35.4796C47.0872 34.364 48.6573 33.2277 49.649 32.0708L51.7563 29.5916L43.2031 21.0385C40.5587 18.394 37.5837 16.3074 34.2781 14.7786C30.9726 13.2497 27.4604 12.4853 23.7417 12.4853C21.5104 12.4853 19.4858 12.7539 17.6677 13.2911C15.8497 13.8282 13.9903 14.5513 12.0896 15.4603L20.0229 23.3937ZM71.0938 67.7708H32.7906V72.7291H72.8292C72.3333 72.2333 71.9201 71.5515 71.5896 70.6838C71.259 69.8161 71.0938 68.8451 71.0938 67.7708ZM32.7906 72.7291V67.7708V72.7291Z" fill="white"/>
</svg>
